<svg xmlns="http://www.w3.org/2000/svg" xmlns:xlink="http://www.w3.org/1999/xlink" version="1.1" width="501.9816pt" height="501.9782pt" viewBox="0 0 501.9816 501.9782">
<g id="layer_1" data-name="Layer 1">
<path transform="matrix(1,0,0,-1,1,500.9782)" d="M249.9908 490.7489C382.9603 490.7489 490.7506 382.9561 490.7506 249.99 490.7506 117.023 382.9603 9.2302 249.9908 9.2302 117.0213 9.2302 9.231 117.023 9.231 249.99 9.231 382.9561 117.0213 490.7489 249.9908 490.7489" fill="#fbfefe"/>
<path transform="matrix(1,0,0,-1,1,500.9782)" d="M249.9908 499.9782C216.2449 499.9782 183.5076 493.367 152.6791 480.3301 122.9122 467.7389 96.1761 449.714 73.2206 426.7585 50.2651 403.8029 32.2427 377.0702 19.6483 347.2991 6.6121 316.4737 0 283.7333 0 249.9908 0 216.2449 6.6121 183.5045 19.6483 152.6791 32.2427 122.9088 50.2651 96.1758 73.2206 73.2206 96.1761 50.2651 122.9122 32.2393 152.6791 19.6481 183.5076 6.6087 216.2449 0 249.9908 0 283.7336 0 316.474 6.6087 347.2999 19.6481 377.0702 32.2393 403.8055 50.2651 426.761 73.2206 449.7165 96.1758 467.7423 122.9088 480.3301 152.6791 493.3704 183.5045 499.9816 216.2449 499.9816 249.9908 499.9816 283.7333 493.3704 316.4737 480.3301 347.2991 467.7423 377.0702 449.7165 403.8029 426.761 426.7585 403.8055 449.714 377.0702 467.7389 347.2999 480.3301 316.474 493.367 283.7336 499.9782 249.9908 499.9782ZM249.9908 490.7503C382.9603 490.7503 490.7506 382.9578 490.7506 249.9908 490.7506 117.0213 382.9603 9.2285 249.9908 9.2285 117.0213 9.2285 9.231 117.0213 9.231 249.9908 9.231 382.9578 117.0213 490.7503 249.9908 490.7503" fill="#030404"/>
<path transform="matrix(1,0,0,-1,1,500.9782)" d="M44.4399 339.1736C72.2169 329.7586 104.9108 323.3636 134.7284 323.3636 210.2508 323.3636 288.7492 351.2945 366.5324 351.2945 400.5196 351.2945 431.4427 347.4689 455.4334 339.1736 419.8703 420.7589 339.2612 473.9216 250.185 473.9216 161.2103 473.9216 80.5799 420.1574 44.4399 339.1736" fill="#ed1a38"/>
<path transform="matrix(1,0,0,-1,1,500.9782)" d="M455.5599 160.5325C427.7798 169.9441 395.0867 176.3416 365.269 176.3416 289.7464 176.3416 211.2474 148.4116 133.4673 148.4116 99.4802 148.4116 68.557 152.2341 44.5632 160.5325 80.1295 78.944 160.7377 25.7834 249.8148 25.7834 338.7864 25.7834 419.4167 79.5453 455.5599 160.5325" fill="#273a97"/>
<path transform="matrix(1,0,0,-1,1,500.9782)" d="M278.346 273.5546H265.4402V246.0475L277.4914 250.9194C285.205 253.8116 289.5454 257.2245 289.5454 264.3321 289.5454 270.178 285.431 273.5546 278.346 273.5546ZM288.3118 230.8088 265.4402 222.2572V204.7884H233.5961V296.4736H283.1922C308.9656 296.4736 321.8153 285.4086 321.8153 265.7659 321.8153 245.4242 307.6452 237.9078 288.3118 230.8088ZM87.5866 273.5546H74.6804V246.0475L86.7351 250.9194C94.4464 253.8116 98.7888 257.2245 98.7888 264.3321 98.7888 270.178 94.6712 273.5546 87.5866 273.5546ZM97.5532 230.8088 74.6804 222.2572V204.7884H42.8363V296.4736H92.4364C118.2059 296.4736 131.0559 285.4086 131.0559 265.7659 131.0559 245.4242 116.8863 237.9078 97.5532 230.8088ZM321.0446 224.9243C327.0875 209.2147 345.119 201.7205 372.0025 201.7205 397.5914 201.7205 415.4664 212.7112 415.4664 232.1283 415.4664 265.7849 358.4115 257.4502 358.4115 269.7242 358.4115 273.2822 362.5347 275.9882 369.8308 275.9882 379.9474 275.9882 385.4979 272.7448 387.5528 266.2055L413.3364 275.9573C410.0987 288.7767 397.1871 298.5616 368.8926 298.5616 345.0549 298.5616 327.4529 288.2699 327.4529 269.4013 327.4529 234.2911 384.5069 243.3393 384.5069 230.3827 384.5069 226.4664 380.4565 224.1196 371.8046 224.1196 358.8092 224.1196 350.1187 227.3485 346.6057 234.553ZM424.497 204.7884H456.929V297.9658L424.7306 286.5609ZM139.9224 296.4878H220.2616V273.5436H171.7529V261.6735H209.8919V239.6027H171.7529V227.7329H220.8124V204.7884H139.9224Z" fill="#030404"/>
</g>
</svg>
