<svg width="64" height="65" viewBox="0 0 64 65" fill="none" xmlns="http://www.w3.org/2000/svg">
<mask id="path-1-inside-1_32_1065" fill="white">
<path fill-rule="evenodd" clip-rule="evenodd" d="M27.3623 43.696L27.3623 64.5H36.6377L36.6377 43.697L51.3476 58.4068L57.9062 51.8482L43.1957 37.1377L64 37.1377V27.8623L43.196 27.8623L57.9063 13.152L51.3476 6.59335L36.6377 21.3033V0.5L27.3623 0.5L27.3623 21.3043L12.6514 6.59335L6.09273 13.152L20.803 27.8623L0 27.8623L0 37.1377H20.8033L6.09278 51.8482L12.6515 58.4068L27.3623 43.696Z"/>
</mask>
<path fill-rule="evenodd" clip-rule="evenodd" d="M27.3623 43.696L27.3623 64.5H36.6377L36.6377 43.697L51.3476 58.4068L57.9062 51.8482L43.1957 37.1377L64 37.1377V27.8623L43.196 27.8623L57.9063 13.152L51.3476 6.59335L36.6377 21.3033V0.5L27.3623 0.5L27.3623 21.3043L12.6514 6.59335L6.09273 13.152L20.803 27.8623L0 27.8623L0 37.1377H20.8033L6.09278 51.8482L12.6515 58.4068L27.3623 43.696Z" fill="#93F2B1"/>
<path d="M27.3623 64.5H24.3623V67.5H27.3623V64.5ZM27.3623 43.696H30.3623V36.4533L25.241 41.5747L27.3623 43.696ZM36.6377 64.5V67.5H39.6377V64.5H36.6377ZM36.6377 43.697L38.759 41.5756L33.6377 36.4543V43.697H36.6377ZM51.3476 58.4068L49.2262 60.5282L51.3476 62.6495L53.4689 60.5282L51.3476 58.4068ZM57.9062 51.8482L60.0276 53.9695L62.1489 51.8482L60.0276 49.7269L57.9062 51.8482ZM43.1957 37.1377V34.1377H35.9531L41.0744 39.259L43.1957 37.1377ZM64 37.1377V40.1377H67V37.1377H64ZM64 27.8623H67V24.8623H64V27.8623ZM43.196 27.8623L41.0747 25.741L35.9533 30.8623H43.196V27.8623ZM57.9063 13.152L60.0276 15.2733L62.1489 13.152L60.0276 11.0307L57.9063 13.152ZM51.3476 6.59335L53.4689 4.47203L51.3476 2.3507L49.2263 4.47202L51.3476 6.59335ZM36.6377 21.3033H33.6377L33.6377 28.5459L38.759 23.4246L36.6377 21.3033ZM36.6377 0.5L39.6377 0.5V-2.5L36.6377 -2.5V0.5ZM27.3623 0.5V-2.5L24.3623 -2.5V0.5L27.3623 0.5ZM27.3623 21.3043L25.241 23.4256L30.3623 28.5469V21.3043H27.3623ZM12.6514 6.59335L14.7727 4.47202L12.6514 2.3507L10.5301 4.47202L12.6514 6.59335ZM6.09273 13.152L3.97141 11.0307L1.85009 13.152L3.97141 15.2733L6.09273 13.152ZM20.803 27.8623V30.8623H28.0457L22.9244 25.741L20.803 27.8623ZM0 27.8623L0 24.8623H-3L-3 27.8623H0ZM0 37.1377H-3L-3 40.1377H0L0 37.1377ZM20.8033 37.1377L22.9246 39.259L28.0459 34.1377L20.8033 34.1377V37.1377ZM6.09278 51.8482L3.97146 49.7269L1.85014 51.8482L3.97146 53.9695L6.09278 51.8482ZM12.6515 58.4068L10.5301 60.5282L12.6515 62.6495L14.7728 60.5282L12.6515 58.4068ZM30.3623 64.5L30.3623 43.696H24.3623L24.3623 64.5H30.3623ZM36.6377 61.5H27.3623V67.5H36.6377L36.6377 61.5ZM33.6377 43.697L33.6377 64.5H39.6377L39.6377 43.697H33.6377ZM53.4689 56.2855L38.759 41.5756L34.5164 45.8183L49.2262 60.5282L53.4689 56.2855ZM55.7849 49.7269L49.2262 56.2855L53.4689 60.5282L60.0276 53.9695L55.7849 49.7269ZM41.0744 39.259L55.7849 53.9695L60.0276 49.7269L45.3171 35.0164L41.0744 39.259ZM64 34.1377L43.1957 34.1377V40.1377L64 40.1377V34.1377ZM61 27.8623V37.1377L67 37.1377V27.8623H61ZM43.196 30.8623L64 30.8623V24.8623L43.196 24.8623V30.8623ZM55.785 11.0307L41.0747 25.741L45.3173 29.9836L60.0276 15.2733L55.785 11.0307ZM49.2263 8.71467L55.785 15.2733L60.0276 11.0307L53.4689 4.47203L49.2263 8.71467ZM38.759 23.4246L53.4689 8.71467L49.2263 4.47202L34.5164 19.182L38.759 23.4246ZM33.6377 0.5V21.3033H39.6377V0.5L33.6377 0.5ZM27.3623 3.5L36.6377 3.5V-2.5L27.3623 -2.5V3.5ZM30.3623 21.3043L30.3623 0.5L24.3623 0.5L24.3623 21.3043H30.3623ZM10.5301 8.71467L25.241 23.4256L29.4836 19.1829L14.7727 4.47202L10.5301 8.71467ZM8.21406 15.2733L14.7727 8.71467L10.5301 4.47202L3.97141 11.0307L8.21406 15.2733ZM22.9244 25.741L8.21406 11.0307L3.97141 15.2733L18.6817 29.9836L22.9244 25.741ZM0 30.8623L20.803 30.8623V24.8623L0 24.8623L0 30.8623ZM3 37.1377L3 27.8623H-3L-3 37.1377H3ZM20.8033 34.1377H0L0 40.1377H20.8033V34.1377ZM8.2141 53.9695L22.9246 39.259L18.682 35.0164L3.97146 49.7269L8.2141 53.9695ZM14.7728 56.2855L8.2141 49.7269L3.97146 53.9695L10.5301 60.5282L14.7728 56.2855ZM25.241 41.5747L10.5301 56.2855L14.7728 60.5282L29.4836 45.8173L25.241 41.5747Z" fill="black" mask="url(#path-1-inside-1_32_1065)"/>
</svg>
